<svg xmlns="http://www.w3.org/2000/svg" viewBox="0 0 456.96 178.65"><defs><style>.cls-1{fill:#fff;}</style></defs><g id="Camada_2" data-name="Camada 2"><g id="Camada_2-2" data-name="Camada 2"><path class="cls-1" d="M86,93.86l-15.34,18.2-44.9,53.29-11.24,13.3,23.43-66.59H0L12.57,93.85,23.84,77.53,77.36,0,50.08,77.53,44.33,93.85c2.17,0,4.36,0,6.54,0Z"/><polygon points="78.58 89.33 51.16 89.33 68.92 38.83 78.58 89.33"/><polygon points="199.47 42.47 199.47 136.19 264.04 136.19 264.04 118.52 221.29 118.52 221.29 97.67 261.35 97.67 261.35 80.49 221.29 80.49 221.29 58.9 264.34 58.9 264.34 42.71 199.47 42.47"/><polygon points="113.41 42.47 135.53 42.47 135.53 81.52 162.44 81.52 162.44 42.47 183.36 42.47 183.36 136.19 161.24 136.19 161.24 97.63 135.53 97.63 135.53 136.19 113.41 136.19 113.41 42.47"/><path d="M342,105.63l8.66-7.06V49.89l-9-7.3h-61l-.29,93.47h21.22V105.4h17.94l13.15,30.66h23.91Zm-12.41-19H301.71V58.72h27.91Z"/><polygon points="366.85 42.47 366.85 59.7 411.71 59.7 366.85 119.33 366.85 136.19 436.48 136.19 436.48 118.46 392.53 118.46 436.48 59.95 436.48 42.47 366.85 42.47"/><path d="M456.4,52.61a7.3,7.3,0,0,1-1.54,2.31,7.16,7.16,0,0,1-2.31,1.57,7,7,0,0,1-2.85.58,7.23,7.23,0,0,1-6.66-10,7.26,7.26,0,0,1,3.85-3.88,7,7,0,0,1,2.85-.58,7.1,7.1,0,0,1,2.84.57,7.3,7.3,0,0,1,2.29,1.55,7.27,7.27,0,0,1,1.53,7.9Zm-.77-5.31a6.45,6.45,0,0,0-1.34-2,6.33,6.33,0,0,0-2-1.37,6.42,6.42,0,0,0-2.53-.5,6.32,6.32,0,0,0-4.58,1.9,6.64,6.64,0,0,0-1.35,2.05,6.38,6.38,0,0,0-.49,2.51,6.56,6.56,0,0,0,.48,2.51,6.29,6.29,0,0,0,1.34,2,6.35,6.35,0,0,0,4.56,1.87,6.32,6.32,0,0,0,4.58-1.9,6.64,6.64,0,0,0,1.35-2,6.67,6.67,0,0,0,0-5Zm-2.91,2.55a2.69,2.69,0,0,1-1.2.86l1.88,2.76h-2L449.78,51h-1.34v2.48h-1.7v-7.7h3.42a3.36,3.36,0,0,1,2.2.67,2.28,2.28,0,0,1,.82,1.87A2.38,2.38,0,0,1,452.72,49.85Zm-1.62-2.3a1.57,1.57,0,0,0-1-.28h-1.66v2.26h1.7a1.39,1.39,0,0,0,1-.31,1.17,1.17,0,0,0,0-1.67Z"/></g></g></svg>